Patient4_TMGait_0pt5_02_right_26_GRF.mot
version=1
nRows=65
nColumns=19
inDegrees=no
endheader
time	F1x	F1y	F1z	M1x	M1y	M1z	F2x	F2y	F2z	M2x	M2y	M2z	EC1x	EC1y	EC1z	EC2x	EC2y	EC2z
33.89	2.4301	758.3335	70.3354	-257.0665	-51.9861	619.3463	0.27195	-1.7958	0.041339	0.23636	-0.37587	1.3462	-0.0592	0.0182	-0.0073	-0.0462	0.0165	0.9585
33.903	2.2247	754.3445	70.6634	-254.6292	-52.271	613.939	-0.036834	-0.38082	-0.097697	0.50348	-0.033503	1.6881	-0.0592	0.0182	-0.0073	-0.0462	0.0165	0.9585
33.916	2.3539	750.2057	70.705	-252.0757	-52.1394	608.0949	-0.29877	0.85698	-0.18782	0.73796	0.21627	2.0087	-0.0592	0.0182	-0.0073	-0.0462	0.0165	0.9585
33.929	2.8508	746.3714	70.4542	-249.6567	-51.5733	602.2078	-0.49928	1.835	-0.24371	0.9287	0.38655	2.2757	-0.0592	0.0182	-0.0073	-0.0462	0.0165	0.9585
33.942	3.726	743.2139	69.9175	-247.5742	-50.5912	596.5785	-0.6369	2.542	-0.27726	1.0752	0.4977	2.4778	-0.0592	0.0182	-0.0073	-0.0462	0.0165	0.9585
33.955	4.9803	740.9582	69.1261	-245.9542	-49.2435	591.3798	-0.73137	3.006	-0.29961	1.18	0.57325	2.6208	-0.0592	0.0182	-0.0073	-0.0462	0.0165	0.9585
33.968	6.6291	739.7129	68.1219	-244.8551	-47.5816	586.6908	-0.79621	3.2485	-0.32123	1.2396	0.63344	2.6904	-0.0592	0.0182	-0.0073	-0.0462	0.0165	0.9585
33.981	8.6975	739.4998	66.9675	-244.2849	-45.6636	582.5425	-0.85975	3.2764	-0.35007	1.2428	0.69752	2.6595	-0.0592	0.0182	-0.0073	-0.0462	0.0165	0.9585
33.994	11.2079	740.271	65.739	-244.2122	-43.553	578.9168	-0.93242	3.0682	-0.38727	1.1671	0.77262	2.4699	-0.0592	0.0182	-0.0073	-0.0462	0.0165	0.9585
34.007	14.1708	741.9208	64.5267	-244.5716	-41.3245	575.7575	-1.0221	2.5754	-0.42647	0.97889	0.85563	2.0503	-0.0592	0.0182	-0.0073	-0.0462	0.0165	0.9585
34.02	17.573	744.2769	63.4165	-245.2702	-39.0514	572.967	-1.1263	1.7161	-0.46092	0.63577	0.93697	1.303	-0.0592	0.0182	-0.0073	-0.0462	0.0165	0.9585
34.033	21.3674	747.1302	62.4832	-246.2015	-36.8056	570.4406	-1.2232	0.39774	-0.47874	0.096608	0.99283	0.12183	-0.0592	0.0182	-0.0073	-0.0462	0.0165	0.9585
34.046	25.4871	750.237	61.7767	-247.2505	-34.6453	568.0436	-1.2761	-1.445	-0.46416	-0.66548	0.99057	-1.5668	-0.0592	0.0182	-0.0073	-0.0462	0.0165	0.9585
34.059	29.8366	753.2949	61.3274	-248.2891	-32.6244	565.6079	-1.2271	-3.8095	-0.39424	-1.6464	0.88584	-3.7678	-0.0592	0.0182	-0.0073	-0.0462	0.0165	0.9585
34.072	34.3132	755.8994	61.1399	-249.164	-30.7761	562.8914	-1.0041	-6.5395	-0.24463	-2.7794	0.62634	-6.3284	-0.0592	0.0182	-0.0073	-0.0462	0.0165	0.9585
34.085	38.8132	757.5359	61.1902	-249.6966	-29.1124	559.5615	-0.50714	-9.2512	0.015122	-3.9018	0.14692	-8.8843	-0.0592	0.0182	-0.0073	-0.0462	0.0165	0.9585
34.098	43.2249	757.6003	61.4295	-249.6869	-27.6314	555.2226	0.36025	-11.2195	0.4136	-4.7107	-0.61274	-10.742	-0.0592	0.0182	-0.0073	-0.0462	0.0165	0.9585
34.111	47.4669	755.4795	61.7891	-248.9384	-26.3098	549.4692	1.6962	-11.2965	0.96714	-4.725	-1.6979	-10.8155	-0.0592	0.0182	-0.0073	-0.0462	0.0165	0.9585
34.124	51.4472	750.6747	62.1796	-247.2917	-25.1118	541.9936	3.549	-7.8391	1.6668	-3.257	-3.109	-7.5365	-0.0592	0.0182	-0.0073	-0.0462	0.0165	0.9585
34.137	55.0793	742.8415	62.49	-244.6361	-23.9843	532.6019	5.8811	1.277	2.4541	0.58159	-4.7629	1.1172	-0.0592	0.0182	-0.0073	-0.0462	0.0165	0.9585
34.15	58.2605	731.7603	62.5933	-240.8979	-22.8753	521.2151	8.4826	18.5276	3.1961	7.8237	-6.4376	17.5056	-0.0592	0.0182	-0.0073	-0.0462	0.0165	0.9585
34.163	60.866	717.2065	62.3274	-235.9992	-21.7176	507.7611	10.8745	46.4095	3.6567	19.5078	-7.7008	44.0032	-0.0592	0.0182	-0.0073	-0.0462	0.0165	0.9585
34.176	62.7355	698.8229	61.4998	-229.8192	-20.4382	492.0834	12.1591	86.8662	3.5208	36.4343	-7.8749	82.4529	-0.0592	0.0182	-0.0073	-0.0462	0.0165	0.9585
34.189	63.6768	676.0187	59.888	-222.1652	-18.9553	473.8623	11.0071	140.3462	2.4624	58.769	-6.1017	133.2841	-0.0592	0.0182	-0.0073	-0.0462	0.0165	0.9585
34.202	63.4828	647.9593	57.2856	-212.7735	-17.2055	452.5839	6.1609	204.6709	0.15585	85.5749	-1.5727	194.4198	-0.0592	0.0182	-0.0073	-0.0462	0.0165	0.9585
34.215	61.9674	613.716	53.5365	-201.3627	-15.1526	427.6218	-2.3056	274.6157	-3.6623	114.6487	5.8781	260.8475	-0.0592	0.0182	-0.0073	-0.0462	0.0165	0.9585
34.228	59.0319	572.5229	48.6358	-187.7137	-12.8332	398.3844	-12.6302	343.6059	-8.887	143.2499	15.3649	326.1319	-0.0592	0.0182	-0.0073	-0.0462	0.0165	0.9585
34.241	54.6458	524.0332	42.8099	-171.7345	-10.405	364.5252	-22.9717	406.803	-14.9534	169.3744	25.5271	385.407	-0.0592	0.0182	-0.0073	-0.0462	0.0165	0.9585
34.254	48.8644	468.5499	36.526	-153.5231	-8.157	326.113	-32.0565	462.6678	-21.166	192.389	35.1526	437.0035	-0.0592	0.0182	-0.0073	-0.0462	0.0165	0.9585
34.267	41.8131	407.306	30.3094	-133.4623	-6.3826	283.8857	-39.2071	512.0381	-26.9167	212.6431	43.3825	481.6777	-0.0592	0.0182	-0.0073	-0.0462	0.0165	0.9585
34.28	33.7216	342.5	24.6023	-112.2441	-5.2908	239.2503	-44.1718	556.5561	-31.9212	230.8023	49.8595	521.0393	-0.0592	0.0182	-0.0073	-0.0462	0.0165	0.9585
34.293	24.8972	277.0991	19.657	-90.8146	-4.9414	194.1751	-46.9622	597.6068	-36.2095	247.4075	54.6475	556.4627	-0.0592	0.0182	-0.0073	-0.0462	0.0165	0.9585
34.306	15.8188	214.4305	15.5562	-70.2522	-5.2355	150.9042	-47.8831	635.9585	-40.0747	262.7169	58.1717	588.8112	-0.0592	0.0182	-0.0073	-0.0462	0.0165	0.9585
34.319	7.1951	157.6704	12.2445	-51.6043	-5.9054	111.6043	-47.3629	671.5939	-43.8817	276.6655	60.9779	618.2326	-0.0592	0.0182	-0.0073	-0.0462	0.0165	0.9585
34.332	-0.12682	109.2176	9.5961	-35.6731	-6.5855	77.932	-45.9472	703.8095	-47.9065	288.919	63.5617	644.3002	-0.0592	0.0182	-0.0073	-0.0462	0.0165	0.9585
34.345	-5.4267	70.1963	7.43	-22.8465	-6.9108	50.6673	-44.1212	731.4383	-52.1722	298.9983	66.1625	666.12	-0.0592	0.0182	-0.0073	-0.0462	0.0165	0.9585
34.358	-8.4039	40.5707	5.5552	-13.1244	-6.6435	29.8225	-42.2733	753.3608	-56.4641	306.487	68.7568	682.8202	-0.0592	0.0182	-0.0073	-0.0462	0.0165	0.9585
34.371	-9.1715	19.4655	3.8804	-6.2219	-5.7661	14.8192	-40.5906	768.8369	-60.3425	311.1667	71.0369	693.8155	-0.0592	0.0182	-0.0073	-0.0462	0.0165	0.9585
34.384	-8.3321	5.6048	2.4153	-1.7116	-4.488	4.8351	-39.0934	777.6131	-63.3607	313.0388	72.6269	698.9153	-0.0592	0.0182	-0.0073	-0.0462	0.0165	0.9585
34.397	-6.6956	-2.4562	1.2642	0.89177	-3.1572	-1.0862	-37.728	779.9012	-65.1865	312.2945	73.2229	698.3154	-0.0592	0.0182	-0.0073	-0.0462	0.0165	0.9585
34.41	-4.8552	-6.2749	0.46394	2.1046	-2.0041	-3.9898	-36.393	776.3961	-65.735	309.3083	72.7249	692.593	-0.0592	0.0182	-0.0073	-0.0462	0.0165	0.9585
34.423	-3.1631	-7.2834	-0.033646	2.3989	-1.1118	-4.8592	-35.0181	768.3512	-65.1276	304.6567	71.2188	682.8172	-0.0592	0.0182	-0.0073	-0.0462	0.0165	0.9585
34.436	-1.7796	-6.6556	-0.28162	2.1604	-0.4991	-4.5322	-33.5368	757.4855	-63.6116	299.0872	68.9066	670.4402	-0.0592	0.0182	-0.0073	-0.0462	0.0165	0.9585
34.449	-0.76456	-5.235	-0.36124	1.667	-0.12399	-3.6012	-31.9353	745.8756	-61.4494	293.4675	66.0181	657.2402	-0.0592	0.0182	-0.0073	-0.0462	0.0165	0.9585
34.462	-0.074473	-3.5995	-0.32654	1.1078	0.063635	-2.4973	-30.203	735.6437	-58.8777	288.6658	62.763	645.0196	-0.0592	0.0182	-0.0073	-0.0462	0.0165	0.9585
34.475	0.33089	-2.0694	-0.23734	0.5878	0.12358	-1.437	-28.3628	728.5796	-56.1168	285.3941	59.3433	635.3033	-0.0592	0.0182	-0.0073	-0.0462	0.0165	0.9585
34.488	0.53319	-0.80739	-0.12532	0.16024	0.10548	-0.55364	-26.439	725.7902	-53.3745	284.0718	55.9475	629.0328	-0.0592	0.0182	-0.0073	-0.0462	0.0165	0.9585
34.501	0.59375	0.15045	-0.025738	-0.1614	0.06025	0.13111	-24.44	727.6116	-50.832	284.7925	52.7279	626.4945	-0.0592	0.0182	-0.0073	-0.0462	0.0165	0.9585
34.514	0.57042	0.82313	0.05151	-0.38382	0.012022	0.63094	-22.3713	733.6836	-48.6201	287.3595	49.7845	627.3945	-0.0592	0.0182	-0.0073	-0.0462	0.0165	0.9585
34.527	0.50077	1.2588	0.099424	-0.52562	-0.025853	0.97536	-20.2217	743.0704	-46.8277	291.3419	47.1756	630.9588	-0.0592	0.0182	-0.0073	-0.0462	0.0165	0.9585
34.54	0.39467	1.5256	0.12316	-0.60749	-0.059213	1.216	-18.0035	754.4896	-45.4964	296.1684	44.9252	636.1514	-0.0592	0.0182	-0.0073	-0.0462	0.0165	0.9585
34.553	0.2851	1.6717	0.12304	-0.64483	-0.085219	1.3656	-15.7213	766.5426	-44.6271	301.225	43.0234	641.8375	-0.0592	0.0182	-0.0073	-0.0462	0.0165	0.9585
34.566	0.16381	1.7415	0.10593	-0.64882	-0.11594	1.4587	-13.3961	777.8992	-44.1916	305.9309	41.4411	646.9646	-0.0592	0.0182	-0.0073	-0.0462	0.0165	0.9585
34.579	0.046794	1.7396	0.079279	-0.62159	-0.15144	1.4747	-11.0493	787.3322	-44.1517	309.7573	40.151	650.5748	-0.0592	0.0182	-0.0073	-0.0462	0.0165	0.9585
34.592	-0.081723	1.6633	0.057719	-0.56257	-0.20237	1.4156	-8.7059	793.7953	-44.4625	312.2596	39.1282	651.8729	-0.0592	0.0182	-0.0073	-0.0462	0.0165	0.9585
34.605	-0.21972	1.4729	0.048235	-0.46169	-0.26698	1.2279	-6.3744	796.538	-45.0482	313.1311	38.3209	650.3067	-0.0592	0.0182	-0.0073	-0.0462	0.0165	0.9585
34.618	-0.3798	1.1135	0.062428	-0.30368	-0.3548	0.86076	-4.0588	795.212	-45.8111	312.243	37.6612	645.6401	-0.0592	0.0182	-0.0073	-0.0462	0.0165	0.9585
34.631	-0.55326	0.51843	0.097267	-0.067945	-0.45858	0.26035	-1.7602	789.9141	-46.6421	309.6578	37.0707	637.9766	-0.0592	0.0182	-0.0073	-0.0462	0.0165	0.9585
34.644	-0.6943	-0.37409	0.15322	0.26677	-0.56448	-0.62993	0.52542	781.1544	-47.4524	305.6105	36.4818	627.7331	-0.0592	0.0182	-0.0073	-0.0462	0.0165	0.9585
34.657	-0.76106	-1.5693	0.21531	0.70648	-0.64109	-1.8083	2.8067	769.7807	-48.2044	300.4692	35.8613	615.5801	-0.0592	0.0182	-0.0073	-0.0462	0.0165	0.9585
34.67	-0.65957	-3.0188	0.26642	1.2332	-0.63966	-3.2464	5.1003	756.9019	-48.9077	294.7054	35.207	602.3664	-0.0592	0.0182	-0.0073	-0.0462	0.0165	0.9585
34.683	-0.2991	-4.5546	0.26861	1.7857	-0.49181	-4.7693	7.4151	743.7907	-49.6123	288.8497	34.5514	589.0595	-0.0592	0.0182	-0.0073	-0.0462	0.0165	0.9585
34.696	0.46219	-5.8644	0.17278	2.2465	-0.10221	-6.0818	9.78	731.7095	-50.3954	283.4245	33.941	576.6019	-0.0592	0.0182	-0.0073	-0.0462	0.0165	0.9585
34.709	1.7507	-6.406	-0.086079	2.4147	0.64175	-6.6554	12.2135	721.749	-51.3323	278.8757	33.4201	565.801	-0.0592	0.0182	-0.0073	-0.0462	0.0165	0.9585
34.722	3.6907	-5.3863	-0.57994	1.9946	1.8594	-5.7163	14.7489	714.6477	-52.4813	275.5027	33.0149	557.1773	-0.0592	0.0182	-0.0073	-0.0462	0.0165	0.9585
